<?xml version="1.0" encoding="UTF-8"?>
<!DOCTYPE svg PUBLIC "-//W3C//DTD SVG 1.1//EN" "http://www.w3.org/Graphics/SVG/1.1/DTD/svg11.dtd">
<!-- Creator: CorelDRAW 2020 (64-Bit) -->
<svg xmlns="http://www.w3.org/2000/svg" xml:space="preserve" width="3.54331in" height="1.9685in" version="1.1" style="shape-rendering:geometricPrecision; text-rendering:geometricPrecision; image-rendering:optimizeQuality; fill-rule:evenodd; clip-rule:evenodd"
viewBox="0 0 3543.31 1968.5"
 xmlns:xlink="http://www.w3.org/1999/xlink"
 xmlns:xodm="http://www.corel.com/coreldraw/odm/2003">
 <defs>
  <style type="text/css">
   <![CDATA[
    .fil0 {fill:none}
    .fil1 {fill:#000050}
    .fil2 {fill:#0FCBDE;fill-rule:nonzero}
   ]]>
  </style>
 </defs>
 <g id="Layer_x0020_1">
  <metadata id="CorelCorpID_0Corel-Layer"/>
  <g id="_2370809596304">
   <rect class="fil0" x="0" y="0" width="3543.31" height="1968.5"/>
   <g>
    <path class="fil1" d="M2893.1 772.34l0 0c13.86,0 25.2,11.35 25.2,25.2l0 214.81c0,13.85 -11.35,25.2 -25.2,25.2l0 0c-13.85,0 -25.2,-11.34 -25.2,-25.2l0 -214.81c0,-13.87 11.34,-25.2 25.2,-25.2zm-130.11 210.39c16.67,0 30.18,13.51 30.18,30.18 0,16.67 -13.51,30.18 -30.18,30.18 -16.67,0 -30.18,-13.51 -30.18,-30.18 0,-16.67 13.51,-30.18 30.18,-30.18zm-985.02 12.06c0.02,-0.51 0.02,-1.02 0.02,-1.56l-0.02 -16.98 0 -1.31 0 -23.51 0 -1.31 0 -1.31 0 -1.31 0.02 -37.88 -0.02 -3.3 0 -34.31c0.97,-12.56 4.09,-23.73 12.92,-33.11 25.54,-27.14 58.66,-23.37 83.87,-21.1 12.57,1.13 23.18,1.89 29.89,-1.75 3.02,-1.64 5.26,-4.18 6.53,-7.97 6.48,-19.46 -12.35,-29.19 -28.29,-33.09 -12.19,-2.98 -24.7,-3.49 -36.92,-1.91 -14.7,1.89 -28.99,6.8 -41.8,14.04 -11.45,6.46 -19.07,13.55 -26.06,19.59 -0.25,-1.37 0.07,-2.7 -0.13,-3.99l0 -6c0,-13.25 -10.83,-24.09 -24.08,-24.09l-0 0c-13.25,0 -24.09,10.84 -24.09,24.09l0 217.39c0,13.25 10.84,24.09 24.09,24.09l0 0c13.24,0 24.08,-10.84 24.08,-24.09l0 -19.33zm-134.73 -4.69c-18.23,-1.2 -36.63,-1.01 -44.33,-29.56 -3.65,-13.55 -3.06,-121.87 -1.7,-133.27 10.74,-2.48 27.89,-0.19 39.72,-0.83 12.76,-0.69 23.43,-6.89 23.17,-20.81 -0.62,-32.08 -43.16,-15.96 -62.78,-21.8 -2.95,-18.01 3.16,-65.93 -2.78,-78.93 -8.81,-19.29 -44.58,-19.34 -45.68,13.3 -1.8,53.79 0.05,111.22 0.05,165.43 0,59.89 -6.36,101.34 31.18,134.8 16.06,14.31 34.67,20.88 62.44,19.62 19.72,-0.89 36.4,-19.09 25.58,-35.97 -4.6,-7.17 -14.2,-11.29 -24.87,-11.98zm780.85 -163.3c18.58,11.7 28.6,28.24 45.51,22.22 8.78,-3.13 18.52,-15.16 11.95,-27.96 -6.93,-13.5 -33.13,-32.51 -51.71,-39.55 -47.12,-17.86 -106.63,-5.79 -140.83,31.85 -31.78,34.96 -39.94,86.72 -29.36,130.28 19.03,78.36 106.09,116.61 178.38,87.21 16.33,-6.64 49.93,-24.19 38.83,-45.35 -14.91,-28.42 -41.61,1.07 -58.7,6.78 -55.18,18.45 -103.02,-14.27 -113.44,-59.68 -8.05,-35.09 -0.89,-64.81 15.79,-85.39 23.87,-29.48 70.61,-41.17 103.58,-20.41zm-1141.21 188.11c39.22,25.8 94.82,32.87 139.77,17.78 39.85,-13.38 68.74,-61.6 48.04,-99.94 -14.97,-27.72 -53.9,-41.2 -88.94,-48.79 -25.45,-5.52 -62.31,-9.66 -63.09,-37.48 -1.01,-36.3 71.22,-39.83 104.39,-12.79 36.76,29.96 60.3,-2.14 39.24,-24.4 -8.56,-9.04 -15.32,-14.7 -28.54,-21.74 -23.12,-12.33 -56.13,-16.76 -85.12,-12.33 -15.12,2.31 -27.11,5.65 -38.63,11.87 -46.17,24.95 -47.36,72.57 -25.18,97.47 15.9,17.85 35.58,27.45 65.73,34.65 25.56,6.11 59.7,10.69 72.26,27.99 28.55,39.32 -45.08,65.17 -96.4,39.74 -6.93,-3.43 -13.46,-7.81 -19.28,-13.21 -28.13,-26.13 -75.38,7.54 -24.26,41.17zm-746.61 -48.82c0.07,-9.61 0.07,-20.22 0,-30.8l0 -14.26 -0.24 -5.13c-0.32,-16.9 -0.92,-31.95 -1.93,-40.41 -0.1,-2.17 -0.4,-4.26 -0.88,-6.24 -7.81,-48.46 -37.82,-81.68 -81.18,-92.03 -25.45,-6.08 -57.93,-3.92 -85.78,-3.92 -11.93,0 -40.83,0.55 -55.6,2.42 -0.3,0.04 -0.6,0.07 -0.91,0.12l-0.05 0.01 -0.01 0c-0.37,0.05 -0.72,0.11 -1.06,0.19 -11.49,2.28 -20.23,12.48 -20.23,24.61l0 213.81c0,13.8 11.3,25.09 25.09,25.09l0 0c13.79,0 25.09,-11.3 25.09,-25.09l0 -38.18c0.54,-7.63 0.21,-15.93 0,-23.71l0 -69.69c3.67,-67.44 70.96,-73.41 104.84,-59.67 20.17,8.18 34.75,24.31 40.57,48.66 0.98,4.09 1.65,9.3 2.1,15.28l0 75.46c-0.15,9.2 -0.21,17.72 0,24.86l0 26.98c0,13.8 11.3,25.09 25.08,25.09l0 0c13.78,0 25.09,-11.3 25.09,-25.09l0 -48.37zm1442.01 -45.29c-5.23,-43.9 14.38,-81.72 53.97,-98.06 6.62,-2.73 10.31,-3.81 17.76,-4.89 26.57,-3.83 51.73,5.6 66.3,18.56 56.61,50.36 32.91,149.85 -40.01,159.57 -52.72,7.04 -92.49,-28.82 -98.02,-75.19zm-18.09 -99.59c-19.97,24.21 -33.5,60.94 -28.85,101.88 5.74,50.56 38.06,101.05 90,113.33 15.11,3.57 32.66,3.91 58.89,3.91 21.67,-0 43.34,0 65.02,-0 22.38,0 45.11,3.94 48.93,-18.44 3.02,-17.76 1.66,-110.78 -0.48,-130.83 -4.9,-45.77 -36.25,-89.16 -79.57,-108.06 -51.7,-22.56 -118.29,-5 -153.92,38.21zm-1309.48 99.59c-5.23,-43.9 14.38,-81.72 53.97,-98.06 6.62,-2.73 10.31,-3.81 17.76,-4.89 26.57,-3.83 51.73,5.6 66.29,18.56 56.61,50.36 32.91,149.85 -40.01,159.57 -52.72,7.04 -92.49,-28.82 -98.02,-75.19zm-18.1 -99.59c-19.97,24.21 -33.5,60.94 -28.85,101.88 4.55,40.01 22.13,71.02 43.53,88.22 34.39,27.63 51.73,29.02 105.35,29.02 21.67,-0 43.34,0 65.02,-0 22.38,0 45.11,3.94 48.93,-18.44 3.02,-17.76 1.66,-110.78 -0.48,-130.83 -4.45,-41.54 -30.69,-81.13 -67.89,-102.22 -53.57,-30.36 -126.84,-14.63 -165.61,32.37zm523.94 99.59c-15.51,114.13 -184.79,95.28 -168.24,-28.21 6,-44.82 45.26,-83.37 97.85,-74.63 43.58,7.24 77.64,49.48 70.39,102.84zm-191.6 -260.12l0 0c13.46,0 24.46,11 24.46,24.46l0 1.32c1.32,10.18 0.06,22.38 0,31.23l0 8.14 0 3.01c0.01,18.54 0.03,37.09 0,55.63l0 30.04c4.04,-4.31 22.67,-18.99 30.06,-23.44 5.74,-3.46 11.81,-6.53 17.91,-9.06 21.08,-8.76 45.56,-10.37 69.75,-5.83 123.63,23.2 143.39,240.36 -22,263.57 -18.58,0.57 -122.69,2.46 -132.07,-1.73 -17.24,-7.69 -12.69,-33.8 -12.69,-54.05l0 -263.78c0,-23.29 -1.01,-30.44 0.12,-35.65 0.33,-13.18 11.2,-23.85 24.46,-23.85zm2155.01 110.52c74.52,0 134.93,59.89 134.93,133.76 0,73.87 -60.41,133.76 -134.93,133.76 -74.52,0 -134.93,-59.89 -134.93,-133.76 0,-73.87 60.41,-133.76 134.93,-133.76zm0 43.55c47.03,0 85.16,40.39 85.16,90.21 0,49.83 -38.13,90.21 -85.16,90.21 -47.03,0 -85.16,-40.39 -85.16,-90.21 0,-49.82 38.13,-90.21 85.16,-90.21zm-528.54 -124.63l0 0c13.41,0 24.39,10.98 24.39,24.39l0 8.07c0.77,10.4 0.31,22.15 0,33.19l0 20.59c0.16,2.88 0.43,5.56 0.85,7.96 23.22,3.53 62.03,-8.56 62.36,21.32 0.33,29.5 -38.59,18.8 -62.43,21.18 -0.31,2.09 -0.57,6.56 -0.78,12.61l0 82.91c0,0.86 -0.05,1.7 -0.13,2.54 0.35,16.72 0.91,29.87 1.69,33.43 10.03,45.76 48.56,23.55 63.43,36.76 5.82,5.18 10.2,14.7 7.51,24.18 -5.39,19.6 -22.59,20.7 -46.32,18.31 -18.26,-1.84 -31.52,-9.62 -42.63,-18.58 -23.32,-18.8 -31.63,-49.5 -31.57,-90.66 -0.49,-1.91 -0.75,-3.92 -0.75,-5.98l0 -207.84c0,-13.41 10.98,-24.39 24.39,-24.39z"/>
    <path class="fil2" d="M967.81 1262.97l-17.2 0 0.15 -8.16c-4.96,3.78 -10.52,6.56 -16.61,8.33 -6.12,1.77 -12.18,2.66 -18.2,2.66 -6.06,0 -11.38,-0.8 -16.02,-2.39 -4.61,-1.6 -8.48,-3.78 -11.62,-6.56 -3.16,-2.78 -5.5,-6.03 -7.03,-9.75 -1.54,-3.72 -2.31,-7.66 -2.31,-11.8 0,-11.11 4.46,-19.62 13.39,-25.54 8.93,-5.91 22.43,-8.87 40.52,-8.87l17.91 0c0.12,-4.02 -0.38,-7.83 -1.51,-11.44 -1.12,-3.61 -2.89,-6.71 -5.32,-9.31 -2.42,-2.6 -5.44,-4.67 -9.04,-6.2 -3.61,-1.54 -7.77,-2.31 -12.5,-2.31 -5.32,0 -10.49,0.98 -15.52,2.93 -5.02,1.95 -9.54,4.81 -13.56,8.6l-10.11 -10.11c5.68,-4.96 11.8,-8.75 18.35,-11.35 6.56,-2.6 13.74,-3.9 21.55,-3.9 6.74,0 12.85,1.04 18.35,3.1 5.5,2.07 10.19,5.06 14.07,8.96 3.87,3.9 6.89,8.63 9.04,14.19 2.16,5.56 3.22,11.88 3.22,18.98l0 59.94zm-17.38 -21.63l0 -28.55 -17.56 -0.18c-4.96,0 -9.69,0.39 -14.19,1.15 -4.49,0.77 -8.43,2.01 -11.8,3.72 -3.37,1.71 -6.03,3.96 -7.98,6.74 -1.95,2.78 -2.93,6.12 -2.93,10.02 0,3.07 0.71,5.74 2.13,7.98 1.42,2.25 3.28,4.08 5.59,5.5 2.3,1.42 4.93,2.48 7.89,3.19 2.96,0.71 5.97,1.06 9.04,1.06 6.15,0 11.61,-0.85 16.41,-2.57 4.79,-1.71 9.25,-4.4 13.39,-8.07zm135.13 -28.46c0,6.97 -1.21,13.62 -3.61,20.01 -2.43,6.35 -5.88,11.97 -10.34,16.81 -4.46,4.85 -9.81,8.69 -16.08,11.59 -6.24,2.9 -13.18,4.35 -20.81,4.35 -6.03,0 -11.65,-1.04 -16.88,-3.11 -5.23,-2.07 -9.75,-4.81 -13.5,-8.24l0 8.87 -17.2 0 0 -147.36 17.2 0 -0.21 53.26c4.26,-3.76 8.87,-6.5 13.89,-8.25 5.03,-1.74 10.52,-2.63 16.55,-2.63 7.45,0 14.28,1.45 20.54,4.35 6.26,2.89 11.64,6.8 16.19,11.76 4.56,4.97 8.04,10.73 10.52,17.35 2.48,6.62 3.72,13.69 3.72,21.25zm-17.02 0.09c0,-5.91 -0.92,-11.29 -2.75,-16.14 -1.83,-4.85 -4.41,-9.01 -7.78,-12.5 -3.37,-3.49 -7.36,-6.18 -12.03,-8.07 -4.64,-1.89 -9.81,-2.83 -15.46,-2.83 -4.96,0 -9.61,0.74 -13.89,2.22 -4.32,1.48 -8.45,3.93 -12.47,7.36l0 57.1c3.78,3.43 7.95,6 12.56,7.71 4.58,1.71 9.37,2.57 14.3,2.57 5.56,0 10.64,-0.92 15.22,-2.75 4.61,-1.83 8.54,-4.41 11.85,-7.71 3.31,-3.31 5.85,-7.24 7.69,-11.8 1.83,-4.55 2.75,-9.61 2.75,-15.16zm108.7 23.76c0,4.73 -1.12,8.89 -3.37,12.5 -2.25,3.61 -5.29,6.65 -9.07,9.13 -3.78,2.48 -8.16,4.34 -13.06,5.59 -4.91,1.24 -10.05,1.86 -15.37,1.86 -6.77,0 -13.48,-1.19 -20.19,-3.55 -6.68,-2.37 -12.71,-5.74 -18.03,-10.11l10.64 -10.81c3.78,3.19 8.1,5.67 12.94,7.45 4.85,1.77 9.76,2.66 14.72,2.66 3.07,0 6.06,-0.26 8.95,-0.8 2.9,-0.54 5.44,-1.36 7.63,-2.48 2.19,-1.12 3.93,-2.51 5.23,-4.17 1.3,-1.66 1.95,-3.61 1.95,-5.85 0,-4.26 -2.57,-7.77 -7.71,-10.55 -5.14,-2.78 -12.5,-5.94 -22.08,-9.49 -4.02,-1.42 -7.95,-3.07 -11.79,-4.96 -3.84,-1.89 -7.27,-4.08 -10.28,-6.56 -3.02,-2.48 -5.44,-5.35 -7.27,-8.6 -1.83,-3.25 -2.75,-6.94 -2.75,-11.08 0,-4.26 0.94,-8.16 2.83,-11.7 1.89,-3.55 4.55,-6.62 7.98,-9.22 3.43,-2.6 7.48,-4.61 12.15,-6.03 4.67,-1.42 9.84,-2.13 15.52,-2.13 14.54,0 26.78,4.61 36.71,13.83l-10.46 10.46c-7.33,-6.74 -16.08,-10.11 -26.24,-10.11 -2.72,0 -5.35,0.3 -7.89,0.89 -2.54,0.59 -4.81,1.48 -6.83,2.66 -2.01,1.19 -3.63,2.66 -4.87,4.43 -1.24,1.78 -1.86,3.84 -1.86,6.21 0,3.9 2.28,7.21 6.85,9.93 4.55,2.72 11.88,5.8 21.96,9.22 4.02,1.42 8.04,3.05 12,4.88 3.96,1.83 7.51,4.02 10.58,6.56 3.07,2.54 5.62,5.44 7.57,8.69 1.95,3.25 2.93,7 2.93,11.26zm72.18 24.47c-5.79,2.95 -12.53,4.43 -20.22,4.43 -9.57,0 -16.64,-2.48 -21.19,-7.45 -4.56,-4.96 -6.83,-13.48 -6.83,-25.54l0 -56.93 -16.13 0 0 -7.09c3.9,-1.78 7.48,-4.02 10.73,-6.74 3.25,-2.72 6.06,-5.73 8.42,-9.04 2.37,-3.31 4.29,-6.89 5.76,-10.73 1.48,-3.84 2.45,-7.77 2.93,-11.79l5.32 0 0 30.15 31.04 -0.18 0 15.43 -31.04 0 0 58.7c0,5.68 1.21,9.76 3.64,12.24 2.42,2.48 6.18,3.72 11.26,3.72 5.67,0 11.11,-1.36 16.31,-4.08l0 14.9zm83.7 -90.26l-9.76 15.61c-1.3,-1.54 -2.83,-3.02 -4.61,-4.43 -1.77,-1.42 -3.63,-2.69 -5.58,-3.81 -1.95,-1.12 -3.9,-2.01 -5.85,-2.66 -1.95,-0.65 -3.75,-0.98 -5.41,-0.98 -1.89,0 -4.02,0.33 -6.38,0.98 -2.37,0.65 -4.58,2.01 -6.65,4.08 -2.07,2.07 -3.81,5.08 -5.23,9.04 -1.42,3.96 -2.13,9.25 -2.13,15.87l0 58.34 -17.02 0 0 -102.5 17.02 0 0 13.83c3.07,-5.44 6.94,-9.55 11.61,-12.32 4.67,-2.78 9.67,-4.17 14.98,-4.17 4.49,0 8.95,1.24 13.39,3.72 4.43,2.48 8.3,5.61 11.61,9.4zm92.39 92.04l-17.2 0 0.15 -8.16c-4.96,3.78 -10.52,6.56 -16.61,8.33 -6.12,1.77 -12.18,2.66 -18.2,2.66 -6.06,0 -11.38,-0.8 -16.02,-2.39 -4.61,-1.6 -8.48,-3.78 -11.62,-6.56 -3.16,-2.78 -5.5,-6.03 -7.03,-9.75 -1.54,-3.72 -2.31,-7.66 -2.31,-11.8 0,-11.11 4.46,-19.62 13.39,-25.54 8.93,-5.91 22.43,-8.87 40.52,-8.87l17.91 0c0.12,-4.02 -0.38,-7.83 -1.51,-11.44 -1.12,-3.61 -2.89,-6.71 -5.32,-9.31 -2.42,-2.6 -5.44,-4.67 -9.04,-6.2 -3.61,-1.54 -7.77,-2.31 -12.5,-2.31 -5.32,0 -10.49,0.98 -15.52,2.93 -5.02,1.95 -9.54,4.81 -13.56,8.6l-10.11 -10.11c5.68,-4.96 11.8,-8.75 18.35,-11.35 6.56,-2.6 13.74,-3.9 21.55,-3.9 6.74,0 12.85,1.04 18.35,3.1 5.5,2.07 10.19,5.06 14.07,8.96 3.87,3.9 6.89,8.63 9.04,14.19 2.16,5.56 3.22,11.88 3.22,18.98l0 59.94zm-17.38 -21.63l0 -28.55 -17.56 -0.18c-4.96,0 -9.69,0.39 -14.19,1.15 -4.49,0.77 -8.43,2.01 -11.8,3.72 -3.37,1.71 -6.03,3.96 -7.98,6.74 -1.95,2.78 -2.93,6.12 -2.93,10.02 0,3.07 0.71,5.74 2.13,7.98 1.42,2.25 3.28,4.08 5.59,5.5 2.3,1.42 4.93,2.48 7.89,3.19 2.96,0.71 5.97,1.06 9.04,1.06 6.15,0 11.61,-0.85 16.41,-2.57 4.79,-1.71 9.25,-4.4 13.39,-8.07zm128.92 6.03c-4.96,5.68 -11.05,10.14 -18.26,13.39 -7.21,3.25 -14.72,4.88 -22.52,4.88 -7.69,0 -14.87,-1.36 -21.55,-4.08 -6.68,-2.72 -12.47,-6.47 -17.41,-11.26 -4.93,-4.79 -8.83,-10.49 -11.7,-17.11 -2.87,-6.62 -4.31,-13.77 -4.31,-21.46 0,-7.57 1.42,-14.63 4.22,-21.19 2.81,-6.56 6.68,-12.26 11.61,-17.11 4.94,-4.85 10.73,-8.66 17.41,-11.44 6.68,-2.78 13.92,-4.17 21.72,-4.17 7.69,0 15.1,1.54 22.25,4.61 7.15,3.07 12.98,7.27 17.47,12.59l-10.99 10.82c-2.6,-3.43 -6.5,-6.41 -11.7,-8.96 -5.2,-2.54 -10.82,-3.81 -16.85,-3.81 -5.2,0 -10.14,1 -14.81,3.01 -4.67,2.01 -8.72,4.73 -12.15,8.16 -3.43,3.43 -6.15,7.51 -8.16,12.24 -2.01,4.73 -3.01,9.81 -3.01,15.25 0,5.44 0.97,10.52 2.93,15.25 1.95,4.73 4.64,8.81 8.07,12.24 3.43,3.43 7.48,6.15 12.15,8.16 4.67,2.01 9.66,3.02 14.98,3.02 5.67,0 11.08,-1.15 16.22,-3.46 5.14,-2.31 9.61,-5.76 13.39,-10.37l10.99 10.81zm68.98 13.83c-5.79,2.95 -12.53,4.43 -20.22,4.43 -9.57,0 -16.64,-2.48 -21.19,-7.45 -4.56,-4.96 -6.83,-13.48 -6.83,-25.54l0 -56.93 -16.13 0 0 -7.09c3.9,-1.78 7.48,-4.02 10.73,-6.74 3.25,-2.72 6.06,-5.73 8.42,-9.04 2.37,-3.31 4.29,-6.89 5.76,-10.73 1.48,-3.84 2.45,-7.77 2.93,-11.79l5.32 0 0 30.15 31.04 -0.18 0 15.43 -31.04 0 0 58.7c0,5.68 1.21,9.76 3.64,12.24 2.42,2.48 6.18,3.72 11.26,3.72 5.67,0 11.11,-1.36 16.31,-4.08l0 14.9zm110.65 1.24c-1.65,0.94 -3.84,1.71 -6.56,2.3 -2.72,0.59 -5.44,0.89 -8.16,0.89 -7.56,0 -13.62,-2.39 -18.17,-7.19 -4.55,-4.79 -6.83,-11.79 -6.83,-21.01l0 -121.65 17.02 0 0 116.86c0,5.67 1.24,9.87 3.75,12.59 2.51,2.72 5.97,4.08 10.37,4.08 1.65,0 3.22,-0.24 4.64,-0.71 1.42,-0.48 2.75,-1.01 3.93,-1.6l0 15.43zm118.28 -50.89c0,1.06 -0.03,2.19 -0.09,3.37 -0.06,1.18 -0.15,2.24 -0.26,3.19l-92.21 0c1.06,5.32 2.83,10.02 5.32,14.1 2.48,4.08 5.44,7.51 8.87,10.29 3.43,2.78 7.21,4.87 11.35,6.3 4.14,1.42 8.45,2.13 12.94,2.13 6.74,0 12.38,-1.3 16.93,-3.9 4.55,-2.6 8.54,-5.61 11.97,-9.04l11.35 11.35c-5.44,5.32 -11.38,9.37 -17.82,12.15 -6.44,2.78 -14.1,4.17 -22.96,4.17 -7.8,0 -15.04,-1.42 -21.72,-4.26 -6.68,-2.84 -12.47,-6.68 -17.38,-11.53 -4.91,-4.85 -8.75,-10.55 -11.53,-17.11 -2.78,-6.56 -4.17,-13.56 -4.17,-21.01 0,-7.45 1.42,-14.45 4.26,-21.02 2.83,-6.56 6.71,-12.26 11.61,-17.11 4.91,-4.85 10.67,-8.69 17.29,-11.53 6.62,-2.84 13.71,-4.26 21.28,-4.26 7.33,0 14.33,1.33 21.01,3.99 6.68,2.66 12.53,6.35 17.56,11.08 5.02,4.73 9.02,10.4 11.97,17.02 2.95,6.62 4.43,13.83 4.43,21.63zm-17.38 -6.92c-0.94,-5.44 -2.69,-10.17 -5.23,-14.19 -2.54,-4.02 -5.53,-7.36 -8.96,-10.02 -3.43,-2.66 -7.15,-4.64 -11.17,-5.94 -4.02,-1.3 -7.92,-1.95 -11.7,-1.95 -4.14,0 -8.25,0.68 -12.33,2.04 -4.08,1.36 -7.86,3.37 -11.35,6.03 -3.49,2.66 -6.5,6 -9.05,10.02 -2.54,4.02 -4.28,8.69 -5.23,14.01l75.01 0zm116.86 58.34l-17.2 0 0.15 -8.16c-4.96,3.78 -10.52,6.56 -16.61,8.33 -6.12,1.77 -12.18,2.66 -18.2,2.66 -6.06,0 -11.38,-0.8 -16.02,-2.39 -4.61,-1.6 -8.48,-3.78 -11.62,-6.56 -3.16,-2.78 -5.5,-6.03 -7.03,-9.75 -1.54,-3.72 -2.31,-7.66 -2.31,-11.8 0,-11.11 4.46,-19.62 13.39,-25.54 8.93,-5.91 22.43,-8.87 40.52,-8.87l17.91 0c0.12,-4.02 -0.38,-7.83 -1.51,-11.44 -1.12,-3.61 -2.89,-6.71 -5.32,-9.31 -2.42,-2.6 -5.44,-4.67 -9.04,-6.2 -3.61,-1.54 -7.77,-2.31 -12.5,-2.31 -5.32,0 -10.49,0.98 -15.52,2.93 -5.02,1.95 -9.54,4.81 -13.56,8.6l-10.11 -10.11c5.68,-4.96 11.8,-8.75 18.35,-11.35 6.56,-2.6 13.74,-3.9 21.55,-3.9 6.74,0 12.85,1.04 18.35,3.1 5.5,2.07 10.19,5.06 14.07,8.96 3.87,3.9 6.89,8.63 9.04,14.19 2.16,5.56 3.22,11.88 3.22,18.98l0 59.94zm-17.38 -21.63l0 -28.55 -17.56 -0.18c-4.96,0 -9.69,0.39 -14.19,1.15 -4.49,0.77 -8.43,2.01 -11.8,3.72 -3.37,1.71 -6.03,3.96 -7.98,6.74 -1.95,2.78 -2.93,6.12 -2.93,10.02 0,3.07 0.71,5.74 2.13,7.98 1.42,2.25 3.28,4.08 5.59,5.5 2.3,1.42 4.93,2.48 7.89,3.19 2.96,0.71 5.97,1.06 9.04,1.06 6.15,0 11.61,-0.85 16.41,-2.57 4.79,-1.71 9.25,-4.4 13.39,-8.07zm105.33 -70.4l-9.76 15.61c-1.3,-1.54 -2.83,-3.02 -4.61,-4.43 -1.77,-1.42 -3.63,-2.69 -5.58,-3.81 -1.95,-1.12 -3.9,-2.01 -5.85,-2.66 -1.95,-0.65 -3.75,-0.98 -5.41,-0.98 -1.89,0 -4.02,0.33 -6.38,0.98 -2.37,0.65 -4.58,2.01 -6.65,4.08 -2.07,2.07 -3.81,5.08 -5.23,9.04 -1.42,3.96 -2.13,9.25 -2.13,15.87l0 58.34 -17.02 0 0 -102.5 17.02 0 0 13.83c3.07,-5.44 6.94,-9.55 11.61,-12.32 4.67,-2.78 9.67,-4.17 14.98,-4.17 4.49,0 8.95,1.24 13.39,3.72 4.43,2.48 8.3,5.61 11.61,9.4zm100.37 92.04l-17.02 0 0 -60.29c0,-10.05 -2.28,-17.5 -6.85,-22.35 -4.56,-4.85 -11.88,-7.27 -21.96,-7.27 -2.01,0 -4.31,0.35 -6.94,1.06 -2.6,0.71 -5.23,1.63 -7.92,2.75 -2.66,1.12 -5.2,2.45 -7.63,3.99 -2.45,1.54 -4.49,3.19 -6.15,4.96l0 77.14 -17.02 0 0 -102.5 17.02 0 0.18 12.41c1.89,-1.89 4.14,-3.76 6.74,-5.59 2.6,-1.83 5.41,-3.46 8.43,-4.88 3.01,-1.42 6.18,-2.54 9.48,-3.37 3.31,-0.83 6.56,-1.24 9.76,-1.24 12.53,0 22.31,3.67 29.35,11 7.04,7.33 10.55,18.15 10.55,32.45l0 61.71zm158.89 0l-17.2 0 0.15 -8.16c-4.96,3.78 -10.52,6.56 -16.61,8.33 -6.12,1.77 -12.18,2.66 -18.2,2.66 -6.06,0 -11.38,-0.8 -16.02,-2.39 -4.61,-1.6 -8.48,-3.78 -11.62,-6.56 -3.16,-2.78 -5.5,-6.03 -7.03,-9.75 -1.54,-3.72 -2.31,-7.66 -2.31,-11.8 0,-11.11 4.46,-19.62 13.39,-25.54 8.93,-5.91 22.43,-8.87 40.52,-8.87l17.91 0c0.12,-4.02 -0.38,-7.83 -1.51,-11.44 -1.12,-3.61 -2.89,-6.71 -5.32,-9.31 -2.42,-2.6 -5.44,-4.67 -9.04,-6.2 -3.61,-1.54 -7.77,-2.31 -12.5,-2.31 -5.32,0 -10.49,0.98 -15.52,2.93 -5.02,1.95 -9.54,4.81 -13.56,8.6l-10.11 -10.11c5.68,-4.96 11.8,-8.75 18.35,-11.35 6.56,-2.6 13.74,-3.9 21.55,-3.9 6.74,0 12.85,1.04 18.35,3.1 5.5,2.07 10.19,5.06 14.07,8.96 3.87,3.9 6.89,8.63 9.04,14.19 2.16,5.56 3.22,11.88 3.22,18.98l0 59.94zm-17.38 -21.63l0 -28.55 -17.56 -0.18c-4.96,0 -9.69,0.39 -14.19,1.15 -4.49,0.77 -8.43,2.01 -11.8,3.72 -3.37,1.71 -6.03,3.96 -7.98,6.74 -1.95,2.78 -2.93,6.12 -2.93,10.02 0,3.07 0.71,5.74 2.13,7.98 1.42,2.25 3.28,4.08 5.59,5.5 2.3,1.42 4.93,2.48 7.89,3.19 2.96,0.71 5.97,1.06 9.04,1.06 6.15,0 11.61,-0.85 16.41,-2.57 4.79,-1.71 9.25,-4.4 13.39,-8.07zm135.13 -29.44c0,7.09 -1.21,13.89 -3.64,20.39 -2.42,6.5 -5.82,12.24 -10.25,17.2 -4.44,4.96 -9.76,8.89 -16.02,11.79 -6.24,2.9 -13.27,4.35 -21.04,4.35 -11.44,0 -21.67,-3.84 -30.62,-11.5l0.18 53.35 -17.02 0 0 -147.19 16.85 0 -0.03 8.33c4.73,-3.78 9.57,-6.53 14.6,-8.25 5.03,-1.71 10.35,-2.57 16.02,-2.57 7.21,0 13.92,1.39 20.19,4.17 6.26,2.78 11.64,6.59 16.19,11.44 4.55,4.85 8.1,10.58 10.7,17.2 2.6,6.62 3.9,13.71 3.9,21.28zm-17.02 0.98c0,-5.91 -0.94,-11.26 -2.84,-16.11 -1.89,-4.81 -4.52,-8.98 -7.89,-12.47 -3.37,-3.48 -7.36,-6.15 -11.97,-8.04 -4.61,-1.89 -9.63,-2.83 -15.07,-2.83 -4.96,0 -9.63,0.71 -14.01,2.13 -4.38,1.42 -8.69,3.87 -12.95,7.42l0 56.8c8.16,7.06 17.15,10.61 26.96,10.61 5.67,0 10.85,-0.92 15.52,-2.75 4.67,-1.83 8.63,-4.35 11.88,-7.59 3.25,-3.25 5.79,-7.19 7.63,-11.76 1.83,-4.61 2.75,-9.76 2.75,-15.4zm131.58 -0.98c0,7.09 -1.21,13.89 -3.64,20.39 -2.42,6.5 -5.82,12.24 -10.25,17.2 -4.44,4.96 -9.76,8.89 -16.02,11.79 -6.24,2.9 -13.27,4.35 -21.04,4.35 -11.44,0 -21.67,-3.84 -30.62,-11.5l0.18 53.35 -17.02 0 0 -147.19 16.85 0 -0.03 8.33c4.73,-3.78 9.57,-6.53 14.6,-8.25 5.03,-1.71 10.35,-2.57 16.02,-2.57 7.21,0 13.92,1.39 20.19,4.17 6.26,2.78 11.64,6.59 16.19,11.44 4.55,4.85 8.1,10.58 10.7,17.2 2.6,6.62 3.9,13.71 3.9,21.28zm-17.02 0.98c0,-5.91 -0.94,-11.26 -2.84,-16.11 -1.89,-4.81 -4.52,-8.98 -7.89,-12.47 -3.37,-3.48 -7.36,-6.15 -11.97,-8.04 -4.61,-1.89 -9.63,-2.83 -15.07,-2.83 -4.96,0 -9.63,0.71 -14.01,2.13 -4.38,1.42 -8.69,3.87 -12.95,7.42l0 56.8c8.16,7.06 17.15,10.61 26.96,10.61 5.67,0 10.85,-0.92 15.52,-2.75 4.67,-1.83 8.63,-4.35 11.88,-7.59 3.25,-3.25 5.79,-7.19 7.63,-11.76 1.83,-4.61 2.75,-9.76 2.75,-15.4zm72.88 49.56c-1.65,0.94 -3.84,1.71 -6.56,2.3 -2.72,0.59 -5.44,0.89 -8.16,0.89 -7.56,0 -13.62,-2.39 -18.17,-7.19 -4.55,-4.79 -6.83,-11.79 -6.83,-21.01l0 -121.65 17.02 0 0 116.86c0,5.67 1.24,9.87 3.75,12.59 2.51,2.72 5.97,4.08 10.37,4.08 1.65,0 3.22,-0.24 4.64,-0.71 1.42,-0.48 2.75,-1.01 3.93,-1.6l0 15.43zm94.34 -102.14l-45.75 123.78c-1.65,4.37 -3.63,8.07 -5.94,11.08 -2.3,3.02 -4.85,5.47 -7.62,7.36 -2.78,1.89 -5.65,3.25 -8.6,4.08 -2.96,0.83 -5.91,1.24 -8.87,1.24 -0.59,0 -1.74,-0.09 -3.46,-0.27 -1.72,-0.18 -3.17,-0.44 -4.35,-0.8l-4.08 -15.25c0.83,0.24 2.1,0.53 3.81,0.89 1.71,0.35 2.87,0.53 3.46,0.53 1.77,0 3.72,-0.12 5.85,-0.35 2.13,-0.24 4.26,-0.83 6.39,-1.77 2.13,-0.95 4.14,-2.37 6.03,-4.26 1.89,-1.89 3.49,-4.55 4.79,-7.98l5.68 -15.61 -42.56 -102.67 17.38 0 32.27 82.46 28.73 -82.46 16.85 0z"/>
   </g>
  </g>
 </g>
</svg>
